<?xml version="1.0" encoding="UTF-8"?> <svg xmlns="http://www.w3.org/2000/svg" id="Layer_1" data-name="Layer 1" viewBox="0 0 299.2 291.6"><defs><style>.cls-1,.cls-3,.cls-5{fill:none;}.cls-1{stroke:red;stroke-width:6px;}.cls-2{fill:red;}.cls-3,.cls-5{stroke:#fff;stroke-linecap:round;stroke-linejoin:round;}.cls-3{stroke-width:4px;}.cls-4{fill:#fff;}.cls-5{stroke-width:2.16px;}</style></defs><g id="Layer_1-2" data-name="Layer 1"><g id="Layer_3" data-name="Layer 3"><g id="Ellipse_91" data-name="Ellipse 91"><circle class="cls-1" cx="149.6" cy="145.8" r="76.5"></circle></g></g><g id="Layer_2" data-name="Layer 2"><circle id="Ellipse_90" data-name="Ellipse 90" class="cls-2" cx="149.6" cy="145.8" r="65"></circle><circle id="Ellipse_90-2" data-name="Ellipse 90" class="cls-2" cx="149.6" cy="145.8" r="65"></circle></g></g><rect class="cls-3" x="119.04" y="98.87" width="62.09" height="93.39"></rect><path id="Star_Outline" data-name="Star Outline" class="cls-4" d="M160.49,143.13c-5.36,1.46-6.84,4.49-8.09,9.52a.49.49,0,0,1-1,0c-1.25-5-2.74-8.06-8.09-9.52a.49.49,0,0,1,0-.95c5.36-1.46,6.84-4.49,8.09-9.52a.49.49,0,0,1,1,0c1.25,5,2.73,8.05,8.09,9.52A.49.49,0,0,1,160.49,143.13Z"></path><path id="Star_Outline-2" data-name="Star Outline" class="cls-4" d="M175.85,124.5c-4.22,1.15-5.38,3.54-6.37,7.49a.39.39,0,0,1-.76,0c-1-4-2.15-6.34-6.36-7.49a.39.39,0,0,1,0-.75c4.22-1.15,5.38-3.54,6.37-7.5a.39.39,0,0,1,.75,0c1,3.92,2.16,6.34,6.37,7.5A.39.39,0,0,1,175.85,124.5Z"></path><line class="cls-5" x1="142.99" y1="111.41" x2="130.15" y2="123.15"></line><line class="cls-5" x1="148.35" y1="113.35" x2="139.08" y2="121.83"></line></svg> 