<?xml version="1.0" encoding="UTF-8"?> <svg xmlns="http://www.w3.org/2000/svg" xmlns:xlink="http://www.w3.org/1999/xlink" version="1.1" x="0px" y="0px" viewBox="0 0 299.2 291.6" style="enable-background:new 0 0 299.2 291.6;" xml:space="preserve"> <style type="text/css"> .st0{display:none;} .st1{display:inline;fill:#FF0000;} .st2{display:inline;fill:#FFFFFF;} .st3{display:inline;fill:none;stroke:#FFFFFF;stroke-width:5;stroke-linecap:round;stroke-miterlimit:10;} .st4{fill:none;} .st5{fill:none;stroke:#FF0000;stroke-width:6;} .st6{fill:#FF0000;} .st7{display:inline;fill:none;stroke:#FFFFFF;stroke-width:5;stroke-miterlimit:10;} .st8{display:inline;fill:none;} .st9{display:inline;fill:#FFFFFF;stroke:#FFFFFF;stroke-miterlimit:10;} .st10{display:inline;fill:none;stroke:#FFFFFF;stroke-width:0.671;stroke-linecap:round;stroke-linejoin:round;} .st11{display:inline;fill:none;stroke:#FFFFFF;stroke-width:0.935;stroke-linecap:round;stroke-linejoin:round;} .st12{display:inline;fill:none;stroke:#6D6F71;stroke-width:3.641;} .st13{display:inline;fill:#6D6F71;} .st14{clip-path:url(#SVGID_00000121267675795677652940000005039899529338815107_);fill:#FFFFFF;} .st15{clip-path:url(#SVGID_00000178887729308388784070000008948654697757136262_);fill:#FF0000;} </style> <g id="Layer_1"> <g id="Layer_1_00000056402819874569377080000011104186705484658580_"> <g id="Layer_1_00000155861441557129505160000017174957893011262873_"> <g id="Layer_1_00000181801026436262444810000012995726002092188841_"> <g id="Night" class="st0"> <circle id="Ellipse_90" class="st1" cx="149.6" cy="145.8" r="65"></circle> <circle id="Ellipse_90_00000181084481559337544150000000128294732444218510_" class="st1" cx="149.6" cy="145.8" r="65"></circle> <path class="st2" d="M190.7,164.8c-0.6-0.6-1.5-0.7-2.2-0.4c-22.5,10.6-49.3,1.1-59.9-21.4c-5.5-11.7-5.8-25.2-0.7-37.1 c0.4-1-0.2-2.2-1.2-2.6c-0.5-0.2-1-0.2-1.4,0c-24.4,11.6-34.8,40.7-23.3,65.1s40.7,34.8,65.1,23.3c10.8-5.1,19.3-13.9,24-24.9 C191.5,166.3,191.3,165.4,190.7,164.8z"></path> <line class="st3" x1="146.5" y1="134.3" x2="161.9" y2="134.3"></line> <line class="st3" x1="146.5" y1="151.1" x2="161.9" y2="151.1"></line> <line class="st3" x1="146.5" y1="151.1" x2="161.9" y2="134.3"></line> <line class="st3" x1="170.2" y1="110.6" x2="192.3" y2="110.6"></line> <line class="st3" x1="170.2" y1="135.4" x2="192.3" y2="135.4"></line> <line class="st3" x1="170.2" y1="135.4" x2="192.3" y2="110.6"></line> </g> </g> <g id="Layer_3"> <g id="Ellipse_91"> <circle class="st4" cx="149.6" cy="145.8" r="79.5"></circle> <circle class="st5" cx="149.6" cy="145.8" r="76.5"></circle> </g> </g> <g id="Layer_2_00000018216744931956410300000003354754997073066387_"> <circle id="Ellipse_90_00000109741377253079007780000008615573698356325030_" class="st6" cx="149.6" cy="145.8" r="65"></circle> <circle id="Ellipse_90_00000086670350744354957190000013127531872930833848_" class="st6" cx="149.6" cy="145.8" r="65"></circle> </g> </g> <g id="Ice_Maker" class="st0"> <path class="st2" d="M133.7,188.8L133.7,188.8h-0.3c-1.3-0.2-2.2-1.4-2-2.7l4.7-33.1l-12.3-12.8c-0.9-1-0.9-2.4,0.1-3.3 c0.5-0.4,1-0.7,1.7-0.7c0.6,0,1.2,0.3,1.7,0.7l12.3,12.7l24.1-5.1l0.5-0.1c1.1,0,2.1,0.8,2.3,1.9c0.1,0.6,0,1.2-0.3,1.8 c-0.3,0.5-0.9,0.9-1.5,1l-23.8,5l-4.6,32.6C135.9,187.9,134.9,188.8,133.7,188.8"></path> <path class="st7" d="M180.6,184.3l-47.9,13.4l-0.5,0.1H132c-0.8,0-1.7-0.4-2.2-1.1L103.7,164c-0.7-0.9-0.8-2-0.3-3l14-29.5 c0.4-0.9,1.2-1.5,2.1-1.6l31.1-4.8c0.7,0,1.3,0.2,1.8,0.7l20.9,18.1l0.6,1.1l8.9,35.9C183,182.4,182.1,183.9,180.6,184.3z"></path> <rect x="74.7" y="71.4" class="st8" width="152" height="152"></rect> <path class="st2" d="M133.7,188.9L133.7,188.9h-0.3c-1.3-0.2-2.2-1.4-2-2.7l4.7-33.1l-12.4-12.8c-0.9-1-0.9-2.5,0.1-3.3 c0.5-0.4,1-0.7,1.7-0.7c0.6,0,1.2,0.3,1.7,0.7l12.3,12.7l24.1-5.1l0.5-0.1c1.1,0,2.1,0.8,2.3,1.9c0.1,0.6,0,1.2-0.3,1.8 c-0.3,0.5-0.9,0.9-1.5,1l-23.8,5l-4.6,32.6C135.9,188,134.9,188.9,133.7,188.9"></path> <path id="Star_Fill" class="st9" d="M202.5,133.3c-7.4,1.3-8.5,5.1-9.9,12c-1.4-6.9-2.6-10.7-9.9-12c7.4-1.3,8.5-5.1,9.9-12 C194,128.2,195.1,132,202.5,133.3"></path> <path id="Star_Outline" class="st10" d="M202.5,133.3c-7.4,1.3-8.5,5.1-9.9,12c-1.4-6.9-2.6-10.7-9.9-12c7.4-1.3,8.5-5.1,9.9-12 C194,128.2,195.1,132,202.5,133.3z"></path> <path id="Star_Fill_00000150065383657994638500000004763548815101151884_" class="st9" d="M183.6,109.7 c-10.7,1.8-12.3,6.8-14.4,16.1c-2.1-9.3-3.7-14.3-14.4-16.1c10.7-1.8,12.3-6.8,14.4-16.1C171.3,102.8,172.9,107.9,183.6,109.7"></path> <path id="Star_Outline_00000012467434235435899130000008353082769495671728_" class="st11" d="M183.6,109.7 c-10.7,1.8-12.3,6.8-14.4,16.1c-2.1-9.3-3.7-14.3-14.4-16.1c10.7-1.8,12.3-6.8,14.4-16.1C171.3,102.8,172.9,107.9,183.6,109.7z"></path> </g> <g id="Layer_3_00000062161233401061032060000017688776515397974191_" class="st0"> <rect x="27.7" y="31.1" class="st12" width="54" height="54"></rect> <path class="st2" d="M81.6,84.3c0,0.4-0.3,0.7-0.7,0.7H28.4c-0.4,0-0.7-0.3-0.7-0.7V31.8c0-0.4,0.3-0.7,0.7-0.7h52.5 c0.4,0,0.7,0.3,0.7,0.7"></path> <polyline class="st13" points="34.1,45 54.2,35.2 74.4,45 74.4,70.8 54.2,80.5 34.1,70.8 "></polyline> <polyline class="st2" points="69.8,60.7 64.8,57.9 69.8,55 69.8,48.9 64.5,45.8 59.5,48.7 59.5,42.9 54.2,39.9 48.9,42.9 48.9,48.7 43.9,45.8 38.6,48.9 38.6,55 43.6,57.9 38.6,60.7 38.6,66.9 43.9,69.9 48.9,67 48.9,72.8 54.2,75.8 59.5,72.8 59.5,67 64.5,69.9 69.8,66.9 "></polyline> <path class="st13" d="M63.6,62.5c0.3,0.2,0.4,0.6,0.2,0.9c-0.1,0.2-0.4,0.3-0.6,0.3H63L54.9,59v9.3c0,0.4-0.3,0.7-0.7,0.7 s-0.7-0.3-0.7-0.7V59l-8.1,4.7l-0.3,0.1c-0.2,0-0.4-0.1-0.6-0.3c-0.2-0.3-0.1-0.7,0.2-0.9l8.1-4.7l-8.1-4.7 c-0.3-0.2-0.4-0.6-0.2-0.9c0.2-0.3,0.6-0.4,0.9-0.2l8.1,4.7v-9.3c0-0.4,0.3-0.7,0.7-0.7s0.7,0.3,0.7,0.7v9.3L63,52 c0.3-0.2,0.7-0.1,0.9,0.2c0.2,0.3,0.1,0.7-0.2,0.9l-8.1,4.7"></path> </g> </g> </g> <g id="Plasma_Quad_filter"> <g> <g> <defs> <path id="SVGID_1_" d="M125.4,155.5l30.5,0l-5.7,8.3c-0.8-0.2-1.7-0.3-2.5-0.3l-0.3-3.7c0.8-0.5,1-1.6,0.4-2.4 c-0.5-0.8-1.6-1-2.4-0.4c-0.8,0.5-1,1.6-0.4,2.4c0.2,0.2,0.4,0.4,0.7,0.6l0.3,3.7c-2.1,0.4-4.1,1.4-5.6,2.9l-2.9-2.4 c0-0.1,0-0.3,0-0.4c0-0.5-0.3-0.9-0.6-1.2c-0.4-0.3-0.8-0.4-1.3-0.4c-0.9,0.1-1.6,0.9-1.6,1.9c0.1,0.9,0.9,1.6,1.9,1.6 c0.1,0,0.3,0,0.4-0.1l2.9,2.4c-1.2,1.8-1.9,3.8-1.9,6l-3.7,0.3c-0.5-0.8-1.6-1-2.4-0.4c-0.8,0.5-1,1.6-0.4,2.4 c0.5,0.8,1.6,1,2.4,0.4c0.2-0.2,0.4-0.4,0.6-0.7l3.7-0.3c0.3,1.5,0.9,2.9,1.7,4.2l-14.7,21.6l18.8-18.2c1.4,0.7,2.9,1,4.4,1 l0.3,3.7c-0.8,0.5-1,1.6-0.4,2.4c0.5,0.8,1.6,1,2.4,0.4c0.8-0.5,1-1.6,0.4-2.4c-0.2-0.2-0.4-0.4-0.7-0.6l-0.3-3.7 c2.1-0.4,4.1-1.4,5.6-2.9l2.9,2.4c0,0.1,0,0.3,0,0.4c0,0.5,0.3,0.9,0.6,1.2c0.4,0.3,0.8,0.4,1.3,0.4c0.9-0.1,1.6-0.9,1.6-1.9 c-0.1-0.9-0.9-1.6-1.9-1.6c-0.1,0-0.3,0-0.4,0.1l-2.9-2.4c1.3-1.8,1.9-3.9,1.9-6l3.7-0.3c0.5,0.8,1.6,1,2.4,0.4 c0.8-0.5,1-1.6,0.4-2.4c-0.4-0.5-1-0.8-1.6-0.7c-0.6,0.1-1.1,0.4-1.4,1L158,172c-0.1-0.8-0.4-1.6-0.7-2.3l27.4-26.6H155 l29.7-49.9L125.4,155.5z"></path> </defs> <use xlink:href="#SVGID_1_" style="overflow:visible;fill:#FFFFFF;"></use> <clipPath id="SVGID_00000153705499609287265330000010312356894777485245_"> <use xlink:href="#SVGID_1_" style="overflow:visible;"></use> </clipPath> <rect x="124.7" y="93.3" style="clip-path:url(#SVGID_00000153705499609287265330000010312356894777485245_);fill:#FFFFFF;" width="60" height="108.1"></rect> </g> <g> <defs> <path id="SVGID_00000056411914757719828870000009683402472813543603_" d="M125.4,155.5l30.5,0l-31.2,45.9l60-58.2H155l29.7-49.9 L125.4,155.5z M184.7,93.3L184.7,93.3L184.7,93.3L184.7,93.3z"></path> </defs> <use xlink:href="#SVGID_00000056411914757719828870000009683402472813543603_" style="overflow:visible;fill:#FFFFFF;"></use> <clipPath id="SVGID_00000113315620457713956980000016607133021609404818_"> <use xlink:href="#SVGID_00000056411914757719828870000009683402472813543603_" style="overflow:visible;"></use> </clipPath> <path style="clip-path:url(#SVGID_00000113315620457713956980000016607133021609404818_);fill:#FF0000;" d="M163,170.7 c-0.6,0.1-1.1,0.4-1.4,1L158,172c-0.4-2.1-1.4-4.1-2.9-5.6l2.4-2.9c0.1,0,0.3,0,0.4,0c0.5,0,0.9-0.3,1.2-0.6 c0.3-0.4,0.4-0.8,0.4-1.3c-0.1-0.9-0.9-1.6-1.9-1.6c-0.9,0.1-1.6,0.9-1.6,1.9c0,0.1,0,0.3,0.1,0.4l-2.4,2.9 c-1.8-1.2-3.9-1.9-6-1.9l-0.3-3.7c0.8-0.5,1-1.6,0.4-2.4c-0.5-0.8-1.6-1-2.4-0.4c-0.8,0.5-1,1.6-0.4,2.4c0.2,0.2,0.4,0.4,0.7,0.6 l0.3,3.7c-2.1,0.4-4.1,1.4-5.6,2.9l-2.9-2.4c0-0.1,0-0.3,0-0.4c0-0.5-0.3-0.9-0.6-1.2c-0.4-0.3-0.8-0.4-1.3-0.4 c-0.9,0.1-1.6,0.9-1.6,1.9c0.1,0.9,0.9,1.6,1.9,1.6c0.1,0,0.3,0,0.4-0.1l2.9,2.4c-1.2,1.8-1.9,3.8-1.9,6l-3.7,0.3 c-0.5-0.8-1.6-1-2.4-0.4c-0.8,0.5-1,1.6-0.4,2.4c0.5,0.8,1.6,1,2.4,0.4c0.2-0.2,0.4-0.4,0.6-0.7l3.7-0.3c0.4,2.1,1.4,4.1,2.9,5.6 l-2.4,2.9c-0.1,0-0.3,0-0.4,0c-0.5,0-0.9,0.3-1.2,0.6c-0.3,0.4-0.4,0.8-0.4,1.3c0.1,0.9,0.9,1.6,1.9,1.6c0.9-0.1,1.6-0.9,1.6-1.9 c0-0.1,0-0.3-0.1-0.4l2.4-2.9c1.7,1.3,3.8,1.9,6,1.9l0.3,3.7c-0.8,0.5-1,1.6-0.4,2.4c0.5,0.8,1.6,1,2.4,0.4 c0.8-0.5,1-1.6,0.4-2.4c-0.2-0.2-0.4-0.4-0.7-0.6l-0.3-3.7c2.1-0.4,4.1-1.4,5.6-2.9l2.9,2.4c0,0.1,0,0.3,0,0.4 c0,0.5,0.3,0.9,0.6,1.2c0.4,0.3,0.8,0.4,1.3,0.4c0.9-0.1,1.6-0.9,1.6-1.9c-0.1-0.9-0.9-1.6-1.9-1.6c-0.1,0-0.3,0-0.4,0.1 l-2.9-2.4c1.3-1.8,1.9-3.9,1.9-6l3.7-0.3c0.5,0.8,1.6,1,2.4,0.4c0.8-0.5,1-1.6,0.4-2.4C164.3,170.9,163.7,170.6,163,170.7"></path> </g> </g> </g> </svg> 