<?xml version="1.0" encoding="UTF-8"?> <svg xmlns="http://www.w3.org/2000/svg" xmlns:xlink="http://www.w3.org/1999/xlink" version="1.1" id="Layer_1" x="0px" y="0px" viewBox="0 0 299.2 291.6" style="enable-background:new 0 0 299.2 291.6;" xml:space="preserve"> <style type="text/css"> .st0{display:none;} .st1{display:inline;fill:#FF0000;} .st2{display:inline;fill:#FFFFFF;} .st3{display:inline;fill:none;stroke:#FFFFFF;stroke-width:5;stroke-linecap:round;stroke-miterlimit:10;} .st4{fill:none;} .st5{fill:none;stroke:#FF0000;stroke-width:6;} .st6{fill:#FF0000;} .st7{display:inline;fill:none;stroke:#FFFFFF;stroke-width:5;stroke-miterlimit:10;} .st8{display:inline;fill:none;} .st9{display:inline;fill:#FFFFFF;stroke:#FFFFFF;stroke-miterlimit:10;} .st10{display:inline;fill:none;stroke:#FFFFFF;stroke-width:0.671;stroke-linecap:round;stroke-linejoin:round;} .st11{display:inline;fill:none;stroke:#FFFFFF;stroke-width:0.935;stroke-linecap:round;stroke-linejoin:round;} .st12{display:inline;fill:none;stroke:#6D6F71;stroke-width:3.641;} .st13{display:inline;fill:#6D6F71;} .st14{display:inline;} .st15{fill:#FFFFFF;} .st16{display:none;fill:#40465E;} .st17{display:none;fill:#61709E;} .st18{display:none;fill:#6B7EB6;} .st19{display:none;fill:#778AC5;} .st20{display:none;fill:#8494CB;} .st21{display:none;fill:#92A0D1;} .st22{display:none;fill:#A2ADD8;} .st23{display:none;fill:#5D6A94;} .st24{display:none;fill:#6F85C2;} </style> <g id="Layer_1_00000056402819874569377080000011104186705484658580_"> <g id="Layer_1_00000155861441557129505160000017174957893011262873_"> <g id="Layer_1_00000181801026436262444810000012995726002092188841_"> <g id="Night" class="st0"> <circle id="Ellipse_90" class="st1" cx="149.6" cy="145.8" r="65"></circle> <circle id="Ellipse_90_00000181084481559337544150000000128294732444218510_" class="st1" cx="149.6" cy="145.8" r="65"></circle> <path class="st2" d="M190.7,164.8c-0.6-0.6-1.5-0.7-2.2-0.4c-22.5,10.6-49.3,1.1-59.9-21.4c-5.5-11.7-5.8-25.2-0.7-37.1 c0.4-1-0.2-2.2-1.2-2.6c-0.5-0.2-1-0.2-1.4,0c-24.4,11.6-34.8,40.7-23.3,65.1s40.7,34.8,65.1,23.3c10.8-5.1,19.3-13.9,24-24.9 C191.5,166.3,191.3,165.4,190.7,164.8z"></path> <line class="st3" x1="146.5" y1="134.3" x2="161.9" y2="134.3"></line> <line class="st3" x1="146.5" y1="151.1" x2="161.9" y2="151.1"></line> <line class="st3" x1="146.5" y1="151.1" x2="161.9" y2="134.3"></line> <line class="st3" x1="170.2" y1="110.6" x2="192.3" y2="110.6"></line> <line class="st3" x1="170.2" y1="135.4" x2="192.3" y2="135.4"></line> <line class="st3" x1="170.2" y1="135.4" x2="192.3" y2="110.6"></line> </g> </g> <g id="Layer_3"> <g id="Ellipse_91"> <circle class="st4" cx="149.6" cy="145.8" r="79.5"></circle> <circle class="st5" cx="149.6" cy="145.8" r="76.5"></circle> </g> </g> <g id="Layer_2_00000018216744931956410300000003354754997073066387_"> <circle id="Ellipse_90_00000109741377253079007780000008615573698356325030_" class="st6" cx="149.6" cy="145.8" r="65"></circle> <circle id="Ellipse_90_00000086670350744354957190000013127531872930833848_" class="st6" cx="149.6" cy="145.8" r="65"></circle> </g> </g> <g id="Ice_Maker" class="st0"> <path class="st2" d="M133.7,188.8L133.7,188.8h-0.3c-1.3-0.2-2.2-1.4-2-2.7l4.7-33.1l-12.3-12.8c-0.9-1-0.9-2.4,0.1-3.3 c0.5-0.4,1-0.7,1.7-0.7c0.6,0,1.2,0.3,1.7,0.7l12.3,12.7l24.1-5.1l0.5-0.1c1.1,0,2.1,0.8,2.3,1.9c0.1,0.6,0,1.2-0.3,1.8 c-0.3,0.5-0.9,0.9-1.5,1l-23.8,5l-4.6,32.6C135.9,187.9,134.9,188.8,133.7,188.8"></path> <path class="st7" d="M180.6,184.3l-47.9,13.4l-0.5,0.1H132c-0.8,0-1.7-0.4-2.2-1.1L103.7,164c-0.7-0.9-0.8-2-0.3-3l14-29.5 c0.4-0.9,1.2-1.5,2.1-1.6l31.1-4.8c0.7,0,1.3,0.2,1.8,0.7l20.9,18.1l0.6,1.1l8.9,35.9C183,182.4,182.1,183.9,180.6,184.3z"></path> <rect x="74.7" y="71.4" class="st8" width="152" height="152"></rect> <path class="st2" d="M133.7,188.9L133.7,188.9h-0.3c-1.3-0.2-2.2-1.4-2-2.7l4.7-33.1l-12.4-12.8c-0.9-1-0.9-2.5,0.1-3.3 c0.5-0.4,1-0.7,1.7-0.7c0.6,0,1.2,0.3,1.7,0.7l12.3,12.7l24.1-5.1l0.5-0.1c1.1,0,2.1,0.8,2.3,1.9c0.1,0.6,0,1.2-0.3,1.8 c-0.3,0.5-0.9,0.9-1.5,1l-23.8,5l-4.6,32.6C135.9,188,134.9,188.9,133.7,188.9"></path> <path id="Star_Fill" class="st9" d="M202.5,133.3c-7.4,1.3-8.5,5.1-9.9,12c-1.4-6.9-2.6-10.7-9.9-12c7.4-1.3,8.5-5.1,9.9-12 C194,128.2,195.1,132,202.5,133.3"></path> <path id="Star_Outline" class="st10" d="M202.5,133.3c-7.4,1.3-8.5,5.1-9.9,12c-1.4-6.9-2.6-10.7-9.9-12c7.4-1.3,8.5-5.1,9.9-12 C194,128.2,195.1,132,202.5,133.3z"></path> <path id="Star_Fill_00000150065383657994638500000004763548815101151884_" class="st9" d="M183.6,109.7 c-10.7,1.8-12.3,6.8-14.4,16.1c-2.1-9.3-3.7-14.3-14.4-16.1c10.7-1.8,12.3-6.8,14.4-16.1C171.3,102.8,172.9,107.9,183.6,109.7"></path> <path id="Star_Outline_00000012467434235435899130000008353082769495671728_" class="st11" d="M183.6,109.7 c-10.7,1.8-12.3,6.8-14.4,16.1c-2.1-9.3-3.7-14.3-14.4-16.1c10.7-1.8,12.3-6.8,14.4-16.1C171.3,102.8,172.9,107.9,183.6,109.7z"></path> </g> <g id="Layer_3_00000062161233401061032060000017688776515397974191_" class="st0"> <rect x="27.7" y="31.1" class="st12" width="54" height="54"></rect> <path class="st2" d="M81.6,84.3c0,0.4-0.3,0.7-0.7,0.7H28.4c-0.4,0-0.7-0.3-0.7-0.7V31.8c0-0.4,0.3-0.7,0.7-0.7h52.5 c0.4,0,0.7,0.3,0.7,0.7"></path> <polyline class="st13" points="34.1,45 54.2,35.2 74.4,45 74.4,70.8 54.2,80.5 34.1,70.8 "></polyline> <polyline class="st2" points="69.8,60.7 64.8,57.9 69.8,55 69.8,48.9 64.5,45.8 59.5,48.7 59.5,42.9 54.2,39.9 48.9,42.9 48.9,48.7 43.9,45.8 38.6,48.9 38.6,55 43.6,57.9 38.6,60.7 38.6,66.9 43.9,69.9 48.9,67 48.9,72.8 54.2,75.8 59.5,72.8 59.5,67 64.5,69.9 69.8,66.9 "></polyline> <path class="st13" d="M63.6,62.5c0.3,0.2,0.4,0.6,0.2,0.9c-0.1,0.2-0.4,0.3-0.6,0.3H63L54.9,59v9.3c0,0.4-0.3,0.7-0.7,0.7 s-0.7-0.3-0.7-0.7V59l-8.1,4.7l-0.3,0.1c-0.2,0-0.4-0.1-0.6-0.3c-0.2-0.3-0.1-0.7,0.2-0.9l8.1-4.7l-8.1-4.7 c-0.3-0.2-0.4-0.6-0.2-0.9c0.2-0.3,0.6-0.4,0.9-0.2l8.1,4.7v-9.3c0-0.4,0.3-0.7,0.7-0.7s0.7,0.3,0.7,0.7v9.3L63,52 c0.3-0.2,0.7-0.1,0.9,0.2c0.2,0.3,0.1,0.7-0.2,0.9l-8.1,4.7"></path> </g> </g> <g id="Wi-Fi" class="st0"> <g class="st14"> <g> <g> <g> <g> <path class="st15" d="M159.1,92.8l-7.9,7.4c11.3,12.2,18.2,28.4,18.2,46.3c0,18.6-7.4,35.3-19.4,47.7l7.8,7.6 c13.9-14.3,22.5-33.7,22.5-55.2C180.1,125.8,172.1,106.9,159.1,92.8z"></path> <path class="st15" d="M142.4,108.2l-8,7.4c7.5,8.1,12.1,18.9,12.2,30.8c0,12.4-5,23.6-13,31.8l7.8,7.6 c9.9-10.1,16.1-24,16.1-39.4C157.5,131.7,151.8,118.3,142.4,108.2z"></path> <path class="st15" d="M125.2,124.3l-8,7.4c3.6,3.9,5.9,9.1,5.9,14.8c0,6-2.4,11.4-6.3,15.3l7.8,7.6c5.8-5.9,9.3-14,9.3-22.9 C133.9,137.9,130.6,130.1,125.2,124.3z"></path> </g> </g> </g> </g> </g> </g> <path class="st15" d="M146.8,146.9c-6.8,1.1-11.2,4.6-11.2,4.6l7.9,9.3L92,163l25.9-33.2l5.2,6.1c2.5-1.4,9.6-2.3,14.5-2.9 c6.6-0.7,21.4,2.5,30.1,5.7c0.2,0.1,10.3-0.7,10.3-0.7"></path> <path class="st16" d="M343.7-118.5c-0.3,0.8-0.8,1.6-1.3,2.3l4.7,3.1c0.8-1.1,1.5-2.3,2-3.5L343.7-118.5z"></path> <path class="st17" d="M344.8-206.1c0-0.9-0.1-1.9-0.3-2.7l6-0.7c0.3,1.3,0.5,2.6,0.5,3.9L344.8-206.1z"></path> <path class="st18" d="M344.5-208.8c-0.2-0.9-0.5-1.8-0.8-2.6l5.5-1.9c0.6,1.2,1,2.5,1.3,3.8L344.5-208.8z"></path> <path class="st19" d="M343.7-211.4c-0.3-0.8-0.8-1.6-1.3-2.3l4.7-3.1c0.8,1.1,1.5,2.3,2,3.5L343.7-211.4z"></path> <path class="st20" d="M342.5-213.7c-0.5-0.7-1.1-1.4-1.7-2l3.8-4.2c1,1,1.9,2,2.6,3.1L342.5-213.7z"></path> <path class="st21" d="M340.8-215.7c-0.6-0.6-1.3-1.2-2-1.7l2.7-5.1c1.1,0.8,2.2,1.7,3.1,2.6L340.8-215.7z"></path> <path class="st22" d="M338.8-217.4c-0.7-0.5-1.5-0.9-2.3-1.3l1.5-5.9c1.2,0.6,2.4,1.2,3.5,2L338.8-217.4z"></path> <polygon class="st23" points="344.8,-123.9 344.8,-206.1 351,-205.6 351,-124.3 "></polygon> <path class="st24" d="M331.1-110.1c7.5,0,13.7-6.2,13.7-13.7v-82.2c0-7.5-6.2-13.7-13.7-13.7H173.6c-7.5,0-13.7,6.2-13.7,13.7v82.2 c0,7.5,6.2,13.7,13.7,13.7H331.1z"></path> <path class="st15" d="M203.6,143.1v-19.2c0-2.8-0.8-3.7-3.2-3.9c-4.3-0.4-28.9-0.4-37.1-0.1c-2.5,0.1-4.9,1.9-5.7,5.2 c-0.5,2.1,0.7,6.9,2.7,9.3c0.8,0.9,1.9,1.9,3.2,2.3c3.8,1.2,33,8.9,35.1,9.3C201.9,146.7,203.6,145.3,203.6,143.1 M164.6,134.6 c-0.6-0.2-1.3-0.6-1.6-1c-2.9-3-3.5-6.9-2.6-9c0.4-0.8,1.5-2.3,3-2.4c5.5-0.4,16.1-0.3,25.2-0.2c0,0-1.2,0.3-2.5,2 c-0.9,1.2-1.8,2.8-1.7,6c0.3,4.4,1.8,8.1,3.9,11C178.8,138.6,166.8,135.5,164.6,134.6 M190.5,139.7c-2.1-3.3-2.9-6.9-3-9.5 c-0.1-2.4,0.4-4.1,2.6-6c1.3-1.1,3.9-1.8,5-1.9c2.3-0.2,4-0.1,4.9,0c0.5,0,0.7,0.1,0.7,0.1c0.1,0.4,0.1,1,0.1,1.5v19.2 c0,0.3-0.1,0.5-0.2,0.6c0,0-0.3,0.2-0.4,0.2c-0.2,0-0.5,0.1-1.1-0.1c-0.5-0.1-4.1-0.9-5.9-1.5C192.6,142,191.1,140.6,190.5,139.7"></path> </svg> 