<?xml version="1.0" encoding="UTF-8"?> <svg xmlns="http://www.w3.org/2000/svg" xmlns:xlink="http://www.w3.org/1999/xlink" version="1.1" id="Layer_1" x="0px" y="0px" viewBox="0 0 299.2 291.6" style="enable-background:new 0 0 299.2 291.6;" xml:space="preserve"> <style type="text/css"> .st0{display:none;} .st1{display:inline;fill:#FF0000;} .st2{display:inline;fill:#FFFFFF;} .st3{display:inline;fill:none;stroke:#FFFFFF;stroke-width:5;stroke-linecap:round;stroke-miterlimit:10;} .st4{fill:none;} .st5{fill:none;stroke:#FF0000;stroke-width:6;} .st6{fill:#FF0000;} .st7{display:inline;fill:none;stroke:#FFFFFF;stroke-width:5;stroke-miterlimit:10;} .st8{display:inline;fill:none;} .st9{display:inline;fill:#FFFFFF;stroke:#FFFFFF;stroke-miterlimit:10;} .st10{display:inline;fill:none;stroke:#FFFFFF;stroke-width:0.671;stroke-linecap:round;stroke-linejoin:round;} .st11{display:inline;fill:none;stroke:#FFFFFF;stroke-width:0.935;stroke-linecap:round;stroke-linejoin:round;} .st12{display:inline;fill:none;stroke:#6D6F71;stroke-width:3.641;} .st13{display:inline;fill:#6D6F71;} .st14{display:inline;} .st15{fill:#ACB6DC;} .st16{fill:#9CA9D5;} .st17{fill:#8D9CCF;} .st18{fill:#8091C8;} .st19{fill:#7487C3;} .st20{fill:#697CB1;} .st21{fill:#61709C;} .st22{fill:#5A668D;} .st23{fill:#BCC3E2;} .st24{fill:#C5CBE7;} .st25{fill:#CCD2EA;} .st26{fill:#D2D6EC;} .st27{fill:#D4D8ED;} .st28{fill:#D5D9ED;} .st29{fill:#566185;} .st30{fill:#49516F;} .st31{fill:#3F465D;} .st32{fill:#454C66;} .st33{fill:#454C67;} .st34{fill:#41475F;} .st35{fill:#474E6A;} .st36{fill:#515B7C;} .st37{fill:#61719E;} .st38{fill:#6B7FB6;} .st39{fill:#778AC4;} .st40{fill:#8293CA;} .st41{fill:#919FD0;} .st42{fill:#A1ADD7;} .st43{fill:#B0BADE;} .st44{fill:#BEC6E4;} .st45{fill:#B6BEE0;} .st46{fill:#5D6A93;} .st47{fill:#576287;} .st48{fill:#C4CAE6;} .st49{fill:#6F83C1;} .st50{fill:#FFFFFF;} </style> <g id="Layer_1_00000056402819874569377080000011104186705484658580_"> <g id="Layer_1_00000155861441557129505160000017174957893011262873_"> <g id="Layer_1_00000181801026436262444810000012995726002092188841_"> <g id="Night" class="st0"> <circle id="Ellipse_90" class="st1" cx="149.6" cy="145.8" r="65"></circle> <circle id="Ellipse_90_00000181084481559337544150000000128294732444218510_" class="st1" cx="149.6" cy="145.8" r="65"></circle> <path class="st2" d="M190.7,164.8c-0.6-0.6-1.5-0.7-2.2-0.4c-22.5,10.6-49.3,1.1-59.9-21.4c-5.5-11.7-5.8-25.2-0.7-37.1 c0.4-1-0.2-2.2-1.2-2.6c-0.5-0.2-1-0.2-1.4,0c-24.4,11.6-34.8,40.7-23.3,65.1s40.7,34.8,65.1,23.3c10.8-5.1,19.3-13.9,24-24.9 C191.5,166.3,191.3,165.4,190.7,164.8z"></path> <line class="st3" x1="146.5" y1="134.3" x2="161.9" y2="134.3"></line> <line class="st3" x1="146.5" y1="151.1" x2="161.9" y2="151.1"></line> <line class="st3" x1="146.5" y1="151.1" x2="161.9" y2="134.3"></line> <line class="st3" x1="170.2" y1="110.6" x2="192.3" y2="110.6"></line> <line class="st3" x1="170.2" y1="135.4" x2="192.3" y2="135.4"></line> <line class="st3" x1="170.2" y1="135.4" x2="192.3" y2="110.6"></line> </g> </g> <g id="Layer_3"> <g id="Ellipse_91"> <circle class="st4" cx="149.6" cy="145.8" r="79.5"></circle> <circle class="st5" cx="149.6" cy="145.8" r="76.5"></circle> </g> </g> <g id="Layer_2_00000018216744931956410300000003354754997073066387_"> <circle id="Ellipse_90_00000109741377253079007780000008615573698356325030_" class="st6" cx="149.6" cy="145.8" r="65"></circle> <circle id="Ellipse_90_00000086670350744354957190000013127531872930833848_" class="st6" cx="149.6" cy="145.8" r="65"></circle> </g> </g> <g id="Ice_Maker" class="st0"> <path class="st2" d="M133.7,188.8L133.7,188.8h-0.3c-1.3-0.2-2.2-1.4-2-2.7l4.7-33.1l-12.3-12.8c-0.9-1-0.9-2.4,0.1-3.3 c0.5-0.4,1-0.7,1.7-0.7c0.6,0,1.2,0.3,1.7,0.7l12.3,12.7l24.1-5.1l0.5-0.1c1.1,0,2.1,0.8,2.3,1.9c0.1,0.6,0,1.2-0.3,1.8 c-0.3,0.5-0.9,0.9-1.5,1l-23.8,5l-4.6,32.6C135.9,187.9,134.9,188.8,133.7,188.8"></path> <path class="st7" d="M180.6,184.3l-47.9,13.4l-0.5,0.1H132c-0.8,0-1.7-0.4-2.2-1.1L103.7,164c-0.7-0.9-0.8-2-0.3-3l14-29.5 c0.4-0.9,1.2-1.5,2.1-1.6l31.1-4.8c0.7,0,1.3,0.2,1.8,0.7l20.9,18.1l0.6,1.1l8.9,35.9C183,182.4,182.1,183.9,180.6,184.3z"></path> <rect x="74.7" y="71.4" class="st8" width="152" height="152"></rect> <path class="st2" d="M133.7,188.9L133.7,188.9h-0.3c-1.3-0.2-2.2-1.4-2-2.7l4.7-33.1l-12.4-12.8c-0.9-1-0.9-2.5,0.1-3.3 c0.5-0.4,1-0.7,1.7-0.7c0.6,0,1.2,0.3,1.7,0.7l12.3,12.7l24.1-5.1l0.5-0.1c1.1,0,2.1,0.8,2.3,1.9c0.1,0.6,0,1.2-0.3,1.8 c-0.3,0.5-0.9,0.9-1.5,1l-23.8,5l-4.6,32.6C135.9,188,134.9,188.9,133.7,188.9"></path> <path id="Star_Fill" class="st9" d="M202.5,133.3c-7.4,1.3-8.5,5.1-9.9,12c-1.4-6.9-2.6-10.7-9.9-12c7.4-1.3,8.5-5.1,9.9-12 C194,128.2,195.1,132,202.5,133.3"></path> <path id="Star_Outline" class="st10" d="M202.5,133.3c-7.4,1.3-8.5,5.1-9.9,12c-1.4-6.9-2.6-10.7-9.9-12c7.4-1.3,8.5-5.1,9.9-12 C194,128.2,195.1,132,202.5,133.3z"></path> <path id="Star_Fill_00000150065383657994638500000004763548815101151884_" class="st9" d="M183.6,109.7 c-10.7,1.8-12.3,6.8-14.4,16.1c-2.1-9.3-3.7-14.3-14.4-16.1c10.7-1.8,12.3-6.8,14.4-16.1C171.3,102.8,172.9,107.9,183.6,109.7"></path> <path id="Star_Outline_00000012467434235435899130000008353082769495671728_" class="st11" d="M183.6,109.7 c-10.7,1.8-12.3,6.8-14.4,16.1c-2.1-9.3-3.7-14.3-14.4-16.1c10.7-1.8,12.3-6.8,14.4-16.1C171.3,102.8,172.9,107.9,183.6,109.7z"></path> </g> <g id="Layer_3_00000062161233401061032060000017688776515397974191_" class="st0"> <rect x="27.7" y="31.1" class="st12" width="54" height="54"></rect> <path class="st2" d="M81.6,84.3c0,0.4-0.3,0.7-0.7,0.7H28.4c-0.4,0-0.7-0.3-0.7-0.7V31.8c0-0.4,0.3-0.7,0.7-0.7h52.5 c0.4,0,0.7,0.3,0.7,0.7"></path> <polyline class="st13" points="34.1,45 54.2,35.2 74.4,45 74.4,70.8 54.2,80.5 34.1,70.8 "></polyline> <polyline class="st2" points="69.8,60.7 64.8,57.9 69.8,55 69.8,48.9 64.5,45.8 59.5,48.7 59.5,42.9 54.2,39.9 48.9,42.9 48.9,48.7 43.9,45.8 38.6,48.9 38.6,55 43.6,57.9 38.6,60.7 38.6,66.9 43.9,69.9 48.9,67 48.9,72.8 54.2,75.8 59.5,72.8 59.5,67 64.5,69.9 69.8,66.9 "></polyline> <path class="st13" d="M63.6,62.5c0.3,0.2,0.4,0.6,0.2,0.9c-0.1,0.2-0.4,0.3-0.6,0.3H63L54.9,59v9.3c0,0.4-0.3,0.7-0.7,0.7 s-0.7-0.3-0.7-0.7V59l-8.1,4.7l-0.3,0.1c-0.2,0-0.4-0.1-0.6-0.3c-0.2-0.3-0.1-0.7,0.2-0.9l8.1-4.7l-8.1-4.7 c-0.3-0.2-0.4-0.6-0.2-0.9c0.2-0.3,0.6-0.4,0.9-0.2l8.1,4.7v-9.3c0-0.4,0.3-0.7,0.7-0.7s0.7,0.3,0.7,0.7v9.3L63,52 c0.3-0.2,0.7-0.1,0.9,0.2c0.2,0.3,0.1,0.7-0.2,0.9l-8.1,4.7"></path> </g> </g> <g id="i-save"> <g class="st0"> <g class="st14"> <g> <g> <path class="st15" d="M58.3,179.6c0,0.9,0.1,1.8,0.3,2.7l-5.8,0.7c-0.3-1.3-0.5-2.5-0.5-3.8L58.3,179.6z"></path> <path class="st16" d="M58.6,182.2c0.2,0.9,0.4,1.7,0.8,2.5l-5.4,1.8c-0.5-1.2-1-2.4-1.3-3.6L58.6,182.2z"></path> <path class="st17" d="M59.4,184.7c0.3,0.8,0.8,1.6,1.2,2.3l-4.6,3c-0.8-1.1-1.4-2.2-2-3.4L59.4,184.7z"></path> <path class="st18" d="M60.6,187c0.5,0.7,1,1.4,1.6,2l-3.7,4.1c-0.9-0.9-1.8-2-2.6-3.1L60.6,187z"></path> <path class="st19" d="M62.2,189c0.6,0.6,1.3,1.2,2,1.6l-2.6,5c-1.1-0.8-2.1-1.6-3.1-2.6L62.2,189z"></path> <path class="st20" d="M64.2,190.6c0.7,0.5,1.5,0.9,2.3,1.2l-1.5,5.8c-1.2-0.5-2.3-1.2-3.4-2L64.2,190.6z"></path> <path class="st21" d="M66.5,191.8c0.8,0.4,1.6,0.6,2.5,0.8l-0.3,6.2c-1.3-0.3-2.5-0.7-3.7-1.3L66.5,191.8z"></path> <path class="st22" d="M69,192.6c0.9,0.2,1.8,0.3,2.7,0.3l0.8,6.4c-1.3,0-2.5-0.1-3.8-0.5L69,192.6z"></path> <path class="st23" d="M58.3,99.5c0-0.9,0.1-1.8,0.3-2.7l-5.8-0.7c-0.3,1.2-0.5,2.5-0.5,3.8L58.3,99.5z"></path> <path class="st24" d="M58.6,96.9c0.2-0.9,0.4-1.7,0.8-2.5L54,92.5c-0.5,1.2-1,2.4-1.3,3.6L58.6,96.9z"></path> <path class="st25" d="M59.4,94.3c0.3-0.8,0.8-1.5,1.2-2.2l-4.6-3c-0.8,1.1-1.4,2.2-2,3.4L59.4,94.3z"></path> <path class="st26" d="M60.6,92.1c0.5-0.7,1-1.4,1.6-2l-3.7-4.1c-0.9,0.9-1.8,2-2.6,3L60.6,92.1z"></path> <path class="st27" d="M62.2,90.1c0.6-0.6,1.3-1.2,2-1.6l-2.6-5c-1.1,0.8-2.1,1.6-3.1,2.6L62.2,90.1z"></path> <path class="st28" d="M64.2,88.5c0.7-0.5,1.5-0.9,2.3-1.2L65,81.5c-1.2,0.6-2.3,1.2-3.4,2L64.2,88.5z"></path> <path class="st26" d="M66.5,87.3c0.8-0.3,1.6-0.6,2.5-0.8l-0.3-6.2c-1.3,0.3-2.5,0.7-3.7,1.3L66.5,87.3z"></path> <path class="st25" d="M69,86.5c0.9-0.2,1.8-0.3,2.7-0.3l0.8-6.4c-1.3,0-2.5,0.2-3.8,0.5L69,86.5z"></path> <path class="st29" d="M238.2,179.6c0,0.9-0.1,1.8-0.3,2.7l5.9,0.7c0.3-1.3,0.4-2.5,0.4-3.8L238.2,179.6z"></path> <path class="st30" d="M238,182.2c-0.2,0.9-0.5,1.7-0.8,2.5l5.4,1.8c0.5-1.2,1-2.4,1.3-3.6L238,182.2z"></path> <path class="st31" d="M237.2,184.7c-0.3,0.8-0.7,1.6-1.2,2.3l4.6,3c0.8-1.1,1.4-2.2,2-3.4L237.2,184.7z"></path> <path class="st32" d="M236,187c-0.5,0.7-1,1.4-1.6,2l3.7,4.1c0.9-0.9,1.8-2,2.6-3.1L236,187z"></path> <path class="st33" d="M234.3,189c-0.6,0.6-1.3,1.2-2,1.6l2.6,5c1.1-0.8,2.1-1.6,3.1-2.6L234.3,189z"></path> <path class="st34" d="M232.3,190.6c-0.7,0.5-1.5,0.9-2.3,1.2l1.5,5.8c1.2-0.5,2.3-1.2,3.4-2L232.3,190.6z"></path> <path class="st35" d="M230.1,191.8c-0.8,0.4-1.6,0.6-2.5,0.8l0.3,6.2c1.3-0.3,2.5-0.7,3.7-1.3L230.1,191.8z"></path> <path class="st36" d="M227.6,192.6c-0.8,0.2-1.8,0.3-2.7,0.3l-0.8,6.4c1.3,0,2.5-0.1,3.8-0.5L227.6,192.6z"></path> <path class="st37" d="M238.2,99.5c0-0.9-0.1-1.8-0.3-2.7l5.9-0.7c0.3,1.2,0.4,2.5,0.4,3.8L238.2,99.5z"></path> <path class="st38" d="M238,96.9c-0.2-0.9-0.5-1.7-0.8-2.5l5.4-1.8c0.5,1.2,1,2.4,1.3,3.6L238,96.9z"></path> <path class="st39" d="M237.2,94.3c-0.3-0.8-0.7-1.5-1.2-2.2l4.6-3c0.8,1.1,1.4,2.2,2,3.4L237.2,94.3z"></path> <path class="st40" d="M236,92.1c-0.5-0.7-1-1.4-1.6-2l3.7-4.1c0.9,0.9,1.8,2,2.6,3L236,92.1z"></path> <path class="st41" d="M234.3,90.1c-0.6-0.6-1.3-1.2-2-1.6l2.6-5c1.1,0.8,2.1,1.6,3.1,2.6L234.3,90.1z"></path> <path class="st42" d="M232.3,88.5c-0.7-0.5-1.5-0.9-2.3-1.2l1.5-5.8c1.2,0.6,2.3,1.2,3.4,2L232.3,88.5z"></path> <path class="st43" d="M230.1,87.3c-0.8-0.3-1.6-0.6-2.5-0.8l0.3-6.2c1.3,0.3,2.5,0.7,3.7,1.3L230.1,87.3z"></path> <path class="st44" d="M227.6,86.5c-0.8-0.2-1.8-0.3-2.7-0.3l-0.8-6.4c1.3,0,2.5,0.2,3.8,0.5L227.6,86.5z"></path> <polygon class="st45" points="58.3,99.5 58.3,179.6 52.3,179.1 52.3,100 "></polygon> <polygon class="st46" points="238.2,179.6 238.2,99.5 244.3,100 244.3,179.1 "></polygon> <polygon class="st47" points="71.6,192.9 224.9,192.9 224.1,199.3 72.5,199.3 "></polygon> <polygon class="st48" points="224.9,86.2 71.6,86.2 72.5,79.8 224.1,79.8 "></polygon> </g> <path class="st49" d="M224.9,192.9c7.3,0,13.3-6,13.3-13.3v-80c0-7.3-6-13.3-13.3-13.3H71.6c-7.3,0-13.3,6-13.3,13.3v80 c0,7.3,6,13.3,13.3,13.3H224.9z"></path> </g> </g> </g> <g> <path class="st50" d="M173.1,101.6c-0.8-1.3-1.9-2.3-3.2-3.1c-6.7-3.9-14.8-6-22.7-6s-16.1,2.1-22.8,6c-1.3,0.8-2.5,1.8-3.2,3.1 c-0.8,1.3-1.2,2.7-1.2,4.1v54.1h54.3v-54.1C174.3,104.3,173.9,102.9,173.1,101.6z"></path> <path class="st6" d="M158.6,132.5v-13.4h7v-5.5h-7v-6.8c3,0,7,0,7,0v-5.5h-13v31.1c-5.7,1.2-10,5.9-10,11.4 c0,6.5,5.8,11.7,13,11.7c7.2,0,13-5.3,13-11.7C168.6,138.4,164.3,133.8,158.6,132.5 M155.6,150.2c-3.8,0-7-2.8-7-6.3 c0-3.5,3.1-6.3,7-6.3c3.8,0,6.9,2.8,6.9,6.3C162.5,147.4,159.4,150.2,155.6,150.2z"></path> <path class="st6" d="M140.9,122.2c0,3.3-2.9,5.9-6.6,5.9c-3.6,0-6.6-2.7-6.6-5.9c0-3.3,3-5.9,6.6-5.9 C137.9,116.3,140.9,118.9,140.9,122.2z"></path> <path class="st6" d="M137.6,134c0,1.2-1.1,2.1-2.4,2.1h-1.7c-1.3,0-2.4-1-2.4-2.1v-6.1c0-1.2,1-2.1,2.4-2.1h1.7 c1.3,0,2.4,1,2.4,2.1V134z"></path> </g> <path class="st50" d="M110.3,163.6h-4.6v4.3h4.6V163.6z M105.7,169.9v17.5h4.6v-17.5H105.7z"></path> <path class="st50" d="M133.8,175.2c-0.2-1.1-0.6-2.3-3.1-2.3c-2.5,0-2.8,0.9-2.8,1.7c0,2.8,11,0.8,11,7.2c0,5.1-4.9,6-7.7,6 c-4,0-8.3-1.4-8.4-6h4.7c0,1.5,0.9,2.6,3.8,2.6c2.4,0,2.9-1.2,2.9-1.8c0-2.9-10.9-0.7-10.9-7.3c0-2.6,1.6-5.9,7.1-5.9 c3.4,0,7.5,0.9,7.8,5.8H133.8z"></path> <path class="st50" d="M156.3,174.5c0-4.3-4.5-5.1-7-5.1c-3.6,0-7.3,0.8-7.8,6.1h4.4c0.1-1,0.5-2.4,2.8-2.4c1.2,0,3,0.1,3,2 c0,1-0.9,1.3-1.6,1.4l-4.1,0.6c-2.9,0.4-5.1,2.2-5.1,5.6c0,3.6,2.7,5.1,5.3,5.1c3.1,0,4.6-1.5,5.7-2.5c0.1,1,0.2,1.3,0.4,2.1h5 v-0.7c-0.6-0.2-1-0.6-1-2.7V174.5z M151.8,181.1c0,2.1-2.1,3.5-4.1,3.5c-0.9,0-2.1-0.5-2.1-2.1c0-1.9,1.4-2.3,3.1-2.6 c1.9-0.3,2.7-0.6,3.1-1V181.1z"></path> <path class="st50" d="M169.4,187.4h-4.8l-6.3-17.5h5.1l3.6,12.9h0.1l3.7-12.9h4.9L169.4,187.4z"></path> <path class="st50" d="M193.3,182.3c-1.2,4.2-4.7,5.6-7.7,5.6c-4.9,0-8.7-2.4-8.7-9.6c0-2.1,0.7-8.9,8.4-8.9c3.5,0,8.2,1.6,8.2,9.6 v0.8h-12c0.1,1.3,0.4,4.3,4.1,4.3c1.3,0,2.6-0.7,3-1.9H193.3z M188.7,176.9c-0.3-2.8-2.1-3.7-3.6-3.7c-2.2,0-3.3,1.4-3.6,3.7H188.7 z"></path> </g> </svg> 