<?xml version="1.0" encoding="UTF-8"?> <svg xmlns="http://www.w3.org/2000/svg" viewBox="0 0 299.24 291.61"><defs><style>.cls-1{fill:red;}.cls-2,.cls-3,.cls-5{fill:none;}.cls-3{stroke:red;stroke-width:6px;}.cls-4{fill:#fff;}.cls-5{stroke:#fff;stroke-linecap:round;stroke-miterlimit:10;stroke-width:5px;}</style></defs><g id="White"><circle id="Ellipse_90" data-name="Ellipse 90" class="cls-1" cx="149.62" cy="145.8" r="65"></circle><g id="Ellipse_91" data-name="Ellipse 91"><circle class="cls-2" cx="149.62" cy="145.8" r="79.5"></circle><circle class="cls-3" cx="149.62" cy="145.8" r="76.5"></circle></g><path class="cls-4" d="M190.71,164.82a2,2,0,0,0-2.2-.36A45,45,0,0,1,127.91,106a2,2,0,0,0-2.63-2.54A48.91,48.91,0,1,0,191.14,167,2,2,0,0,0,190.71,164.82Z"></path><line class="cls-5" x1="146.47" y1="134.29" x2="161.85" y2="134.29"></line><line class="cls-5" x1="146.47" y1="151.07" x2="161.85" y2="151.07"></line><line class="cls-5" x1="146.47" y1="151.07" x2="161.85" y2="134.29"></line><line class="cls-5" x1="170.17" y1="110.58" x2="192.3" y2="110.58"></line><line class="cls-5" x1="170.17" y1="135.37" x2="192.3" y2="135.37"></line><line class="cls-5" x1="170.17" y1="135.37" x2="192.3" y2="110.58"></line></g></svg> 