<?xml version="1.0" encoding="UTF-8"?> <svg xmlns="http://www.w3.org/2000/svg" id="a" viewBox="0 0 299.2 291.6"><defs><style>.i{fill:#fff;}.j{stroke:red;stroke-width:6px;}.j,.k{fill:none;}.k{stroke:#fff;stroke-linecap:round;stroke-linejoin:round;stroke-width:2px;}.l{fill:red;}</style></defs><g id="b"><g id="c"></g><g id="d"><g id="e"><circle class="j" cx="149.6" cy="145.8" r="76.5"></circle></g></g><g id="f"><circle id="g" class="l" cx="149.6" cy="145.8" r="65"></circle><circle id="h" class="l" cx="149.6" cy="145.8" r="65"></circle></g></g><g><path class="i" d="M103.23,166.06c-.39,0-.7-.13-.95-.4-.25-.26-.37-.57-.37-.92v-34.24c0-.39,.12-.7,.37-.95s.56-.37,.95-.37h14.33c4.56,0,8.15,1.04,10.75,3.13,2.6,2.09,3.9,5.05,3.9,8.88,0,2.49-.6,4.6-1.79,6.32-1.19,1.72-2.77,3.02-4.74,3.9l7.22,12.96c.11,.21,.16,.4,.16,.58,0,.28-.11,.54-.34,.76-.23,.23-.48,.34-.76,.34h-7.01c-.67,0-1.16-.17-1.48-.5-.32-.33-.54-.64-.68-.92l-6-11.59h-5.37v11.69c0,.35-.13,.66-.4,.92-.26,.26-.59,.4-.97,.4h-6.79Zm8.16-20.49h6.06c1.65,0,2.89-.4,3.71-1.21,.82-.81,1.24-1.9,1.24-3.27s-.4-2.48-1.19-3.32c-.79-.84-2.05-1.26-3.77-1.26h-6.06v9.06Z"></path><path class="i" d="M151.74,166.59c-2.7,0-5.03-.33-6.98-.97-1.95-.65-3.54-1.49-4.77-2.53-1.23-1.04-2.14-2.14-2.74-3.32-.6-1.18-.91-2.31-.95-3.4,0-.32,.11-.58,.34-.79,.23-.21,.5-.32,.82-.32h6.9c.39,0,.7,.08,.95,.24,.25,.16,.47,.41,.68,.76,.28,.67,.69,1.21,1.24,1.63,.54,.42,1.2,.71,1.97,.87,.77,.16,1.62,.24,2.53,.24,1.79,0,3.19-.41,4.19-1.24,1-.82,1.5-1.96,1.5-3.4s-.47-2.59-1.42-3.24c-.95-.65-2.3-.97-4.06-.97h-5.85c-.39,0-.7-.12-.95-.37-.25-.25-.37-.56-.37-.95v-2.95c0-.42,.09-.79,.26-1.11,.18-.32,.37-.54,.58-.68l8.64-7.32h-14.64c-.35,0-.66-.12-.92-.37-.26-.25-.39-.56-.39-.95v-4.95c0-.39,.13-.7,.39-.95,.26-.25,.57-.37,.92-.37h24.23c.39,0,.71,.12,.97,.37,.26,.25,.39,.56,.39,.95v4.48c0,.39-.09,.73-.26,1.03-.18,.3-.37,.54-.58,.71l-8.01,7.43,.37,.11c2.04,.25,3.84,.77,5.4,1.58,1.56,.81,2.8,1.96,3.71,3.45,.91,1.49,1.37,3.38,1.37,5.66s-.68,4.45-2.03,6.19c-1.35,1.74-3.19,3.08-5.5,4.03-2.32,.95-4.97,1.42-7.95,1.42Z"></path><path class="i" d="M172.87,166.06c-.39,0-.71-.13-.97-.4-.26-.26-.39-.57-.39-.92v-3.74c0-.25,.07-.62,.21-1.13,.14-.51,.51-.99,1.11-1.45l5.48-5.37c2.81-2.14,5.12-3.96,6.93-5.45,1.81-1.49,3.15-2.82,4.03-3.98,.88-1.16,1.32-2.25,1.32-3.27,0-1.19-.31-2.19-.92-2.98-.62-.79-1.68-1.19-3.19-1.19-1.02,0-1.86,.22-2.53,.66-.67,.44-1.18,1.01-1.55,1.71-.37,.7-.62,1.42-.76,2.16-.14,.46-.38,.77-.71,.95-.33,.18-.69,.26-1.08,.26h-6.58c-.32,0-.58-.11-.79-.32-.21-.21-.32-.47-.32-.79,.03-1.69,.39-3.27,1.08-4.77,.68-1.49,1.65-2.8,2.9-3.92,1.25-1.12,2.74-2.01,4.48-2.66,1.74-.65,3.7-.97,5.87-.97,2.98,0,5.52,.48,7.61,1.45,2.09,.97,3.68,2.3,4.77,4s1.63,3.7,1.63,5.98c0,1.72-.38,3.33-1.13,4.82-.76,1.49-1.83,2.92-3.21,4.27-1.39,1.35-3.03,2.75-4.92,4.19l-4.85,4.9h13.54c.39,0,.71,.12,.97,.37,.26,.25,.4,.56,.4,.95v5.32c0,.35-.13,.66-.4,.92-.26,.26-.59,.4-.97,.4h-27.02Z"></path></g><g><path class="k" d="M152.75,121.56c-7.62,4.92-13.87-1.47-12.4-21.67,0,0,28.17,11.48,12.4,21.67Z"></path><path class="k" d="M149.01,112.56c-1.51,2.71-1.15,5.7,3.29,8.57,6.5,4.2,11.83-1.26,10.58-18.48,0,0-5.13,2.09-9.32,5.2"></path></g></svg> 