<?xml version="1.0" encoding="UTF-8"?> <svg xmlns="http://www.w3.org/2000/svg" id="a" viewBox="0 0 299.2 291.6"><defs><style>.i{fill:#fff;}.j{fill:none;stroke:red;stroke-width:6px;}.k{fill:red;}</style></defs><g id="b"><g id="c"></g><g id="d"><g id="e"><circle class="j" cx="149.6" cy="145.8" r="76.5"></circle></g></g><g id="f"><circle id="g" class="k" cx="149.6" cy="145.8" r="65"></circle><circle id="h" class="k" cx="149.6" cy="145.8" r="65"></circle></g></g><g><path class="i" d="M150.95,193.22c-1.37,.63-2.45,.26-3.49-.8-3.54-3.6-7.13-7.15-10.7-10.72-1-1-1.16-2.17-.46-3.22,.7-1.05,2.14-1.38,3.2-.7,.3,.19,.57,.43,.83,.68,2.08,2.07,4.16,4.15,6.24,6.23l.61,.61c.02-.41,.03-.66,.03-.92,0-7.05,0-14.09,0-21.14,0-.74,.08-1.43,.61-2,.67-.72,1.49-1,2.44-.72,.94,.27,1.52,.92,1.71,1.89,.06,.33,.06,.67,.06,1.01,0,6.98,0,13.96,0,20.94,0,.26-.09,.53-.13,.79l.24,.06c.17-.16,.35-.31,.52-.47,2.11-2.11,4.22-4.22,6.33-6.33,.52-.52,1.09-.92,1.86-.96,1.68-.08,2.91,1.53,2.39,3.13-.06,.19-.12,.37-.18,.56l-12.09,12.09Z"></path><path class="i" d="M163.04,110.47c.32,.86,.48,1.71-.06,2.56-.75,1.17-2.27,1.5-3.4,.69-.25-.18-.49-.4-.71-.62-2.07-2.06-4.13-4.12-6.19-6.19l-.64-.64c-.01,.4-.03,.65-.03,.9,0,6.84,0,13.69,0,20.53,0,1.03-.25,1.91-1.21,2.45-1.48,.84-3.28,0-3.56-1.68-.05-.31-.05-.63-.05-.94,0-6.75,0-13.51,0-20.26,0-.27,.04-.54,.06-.81l-.16-.08c-.17,.15-.34,.3-.5,.45-2.14,2.14-4.28,4.29-6.43,6.42-.95,.94-2.07,1.15-3.05,.61-1.4-.78-1.69-2.6-.56-3.79,.96-1.01,1.96-1.97,2.94-2.96,2.65-2.65,5.32-5.28,7.94-7.96,1.03-1.06,2.12-1.43,3.49-.8l12.09,12.09Z"></path><path class="i" d="M184.94,159.23c-.89,.33-1.76,.49-2.62-.09-1.1-.74-1.42-2.21-.67-3.31,.19-.28,.42-.53,.66-.76,2.06-2.07,4.12-4.13,6.18-6.19l.64-.64c-.39-.01-.64-.03-.89-.03-6.8,0-13.59,0-20.39,0-1.84,0-2.93-.9-2.94-2.4,0-1.5,1.1-2.4,2.94-2.4,6.77,0,13.55,0,20.32,0,.26,0,.52-.01,.91-.02-.23-.26-.38-.44-.55-.6-2.11-2.11-4.22-4.22-6.33-6.33-.54-.54-.95-1.13-.96-1.93-.03-1.62,1.52-2.8,3.08-2.34,.21,.06,.42,.14,.62,.2l12.09,12.09c.42,.89,.42,1.78,0,2.67l-12.09,12.09Z"></path><path class="i" d="M110.29,143.46c.56-.02,1.12-.06,1.68-.06,6.73,0,13.46,0,20.2-.01,.76,0,1.48,.11,2.05,.66,.71,.69,.95,1.52,.65,2.46-.3,.93-.96,1.49-1.94,1.65-.31,.05-.63,.04-.94,.04-6.98,0-13.96,0-20.94,0-.26,0-.52,.01-.91,.02,.23,.26,.38,.44,.55,.6,2.09,2.1,4.19,4.18,6.28,6.29,.33,.33,.63,.71,.83,1.13,.45,.97,.1,2.16-.73,2.78-.94,.69-2.1,.68-2.99-.03-.17-.14-.33-.3-.49-.46-3.57-3.57-7.14-7.14-10.71-10.71-1.37-1.37-1.37-2.66-.02-4.02,3.63-3.63,7.26-7.27,10.9-10.9,1.27-1.26,3.12-1.06,3.94,.42,.54,.98,.33,2.11-.6,3.06-2.12,2.13-4.25,4.25-6.38,6.38l-.5,.5,.08,.2Z"></path></g></svg> 